<?xml version="1.0" encoding="UTF-8"?>
<svg id="Layer_1" xmlns="http://www.w3.org/2000/svg" version="1.1" viewBox="0 0 419.5 100.5">
  <!-- Generator: Adobe Illustrator 30.2.1, SVG Export Plug-In . SVG Version: 2.1.1 Build 1)  -->
  <defs>
    <style>
      .st0 {
        fill: #3603d8;
      }

      .st1 {
        fill: #f9a195;
      }
    </style>
  </defs>
  <path id="Logotype" class="st0" d="M167.9,18.2c0-4.4,3.2-7.7,7.6-7.7s7.6,3.3,7.6,7.7-3.2,7.6-7.6,7.6-7.6-3.2-7.6-7.6ZM169.8,31.9h11.4v47.3h-11.4V31.9ZM225.9,11.2v27.6c-3.4-5.3-9-8.1-15.8-8.1-11.5,0-23.6,8.2-23.6,24.4s10.5,25.4,25.6,25.4,25.2-10,25.2-25.3V11.2h-11.4ZM212,69.8c-8.3,0-14-5.9-14-14.3s5.7-14.3,14-14.3,13.9,5.9,13.9,14.3-5.6,14.3-13.9,14.3ZM291.8,55.6c0-14.4-10.3-24.9-25.3-24.9s-25.5,10.5-25.5,24.9,10.5,24.9,25.5,24.9,19.8-5.8,23.4-14.8h-12.2c-2.4,3.1-6.1,4.5-11.2,4.5s-12-3.6-13.5-10.5h38.8v-4.1h0ZM253.3,50.5c1.8-6.2,6.8-9.5,13.2-9.5s11.4,3.2,13.2,9.5h-26.4ZM346.3,55.6c0-14.4-10.3-24.9-25.3-24.9s-25.5,10.5-25.5,24.9,10.5,24.9,25.5,24.9,19.8-5.8,23.4-14.8h-12.2c-2.4,3.1-6.1,4.5-11.2,4.5s-12-3.6-13.5-10.5h38.8v-4.1h0ZM307.8,50.5c1.8-6.2,6.8-9.5,13.2-9.5s11.4,3.2,13.2,9.5h-26.4ZM350.1,51.7c0-14.3,8.4-21.1,20.8-21.1s20.7,6.8,20.7,21.3v.3h-11.3v-.5c0-7.7-3.8-10.4-9.4-10.4s-9.4,2.8-9.4,10.4v27.5h-11.4v-27.5h0Z"/>
  <g id="Logo_Symbol">
    <path class="st1" d="M79,50c-18.7,0-34-15.3-34-34H15c0,35.3,28.7,64,64,64s64-28.7,64-64h-30c0,18.7-15.3,34-34,34Z"/>
  </g>
</svg>